<svg width="670" height="670" viewBox="0 0 670 670" fill="none" xmlns="http://www.w3.org/2000/svg">
<g clip-path="url(#clip0_67_6)">
<path d="M175.6 322.56C170.08 322.56 165.04 321.14 160.48 318.3C155.96 315.46 152.34 311.66 149.62 306.9C146.94 302.1 145.6 296.8 145.6 291C145.6 286.6 146.38 282.5 147.94 278.7C149.5 274.86 151.64 271.5 154.36 268.62C157.12 265.7 160.32 263.42 163.96 261.78C167.6 260.14 171.48 259.32 175.6 259.32C181.12 259.32 186.14 260.74 190.66 263.58C195.22 266.42 198.84 270.24 201.52 275.04C204.24 279.84 205.6 285.16 205.6 291C205.6 295.36 204.82 299.44 203.26 303.24C201.7 307.04 199.54 310.4 196.78 313.32C194.06 316.2 190.88 318.46 187.24 320.1C183.64 321.74 179.76 322.56 175.6 322.56ZM175.6 312.48C179.36 312.48 182.74 311.5 185.74 309.54C188.78 307.54 191.16 304.92 192.88 301.68C194.64 298.4 195.52 294.84 195.52 291C195.52 287.08 194.62 283.48 192.82 280.2C191.06 276.92 188.68 274.3 185.68 272.34C182.68 270.38 179.32 269.4 175.6 269.4C171.84 269.4 168.46 270.4 165.46 272.4C162.46 274.36 160.08 276.98 158.32 280.26C156.56 283.54 155.68 287.12 155.68 291C155.68 295 156.58 298.64 158.38 301.92C160.18 305.16 162.6 307.74 165.64 309.66C168.68 311.54 172 312.48 175.6 312.48ZM268.568 283.68V321H258.488V285.9C258.488 282.86 257.748 280.1 256.268 277.62C254.788 275.14 252.808 273.18 250.328 271.74C247.848 270.26 245.088 269.52 242.048 269.52C239.048 269.52 236.288 270.26 233.768 271.74C231.288 273.18 229.308 275.14 227.828 277.62C226.348 280.1 225.608 282.86 225.608 285.9V321H215.528V261H225.608V268.5C227.728 265.7 230.408 263.48 233.648 261.84C236.888 260.16 240.408 259.32 244.208 259.32C248.688 259.32 252.768 260.42 256.448 262.62C260.168 264.78 263.108 267.7 265.268 271.38C267.468 275.06 268.568 279.16 268.568 283.68ZM305.795 322.56C300.275 322.56 295.235 321.14 290.675 318.3C286.155 315.46 282.535 311.66 279.815 306.9C277.135 302.1 275.795 296.8 275.795 291C275.795 286.6 276.575 282.5 278.135 278.7C279.695 274.86 281.835 271.5 284.555 268.62C287.315 265.7 290.515 263.42 294.155 261.78C297.795 260.14 301.675 259.32 305.795 259.32C310.315 259.32 314.455 260.24 318.215 262.08C322.015 263.88 325.255 266.4 327.935 269.64C330.655 272.88 332.675 276.64 333.995 280.92C335.355 285.2 335.855 289.78 335.495 294.66H286.535C287.015 298.06 288.135 301.1 289.895 303.78C291.655 306.42 293.895 308.52 296.615 310.08C299.375 311.64 302.435 312.44 305.795 312.48C309.395 312.48 312.655 311.56 315.575 309.72C318.495 307.84 320.855 305.28 322.655 302.04L332.915 304.44C330.515 309.76 326.895 314.12 322.055 317.52C317.215 320.88 311.795 322.56 305.795 322.56ZM286.235 286.74H325.355C325.035 283.38 323.955 280.32 322.115 277.56C320.275 274.76 317.935 272.52 315.095 270.84C312.255 269.16 309.155 268.32 305.795 268.32C302.435 268.32 299.355 269.14 296.555 270.78C293.755 272.42 291.435 274.64 289.595 277.44C287.795 280.2 286.675 283.3 286.235 286.74ZM338.753 321L360.713 290.88L338.873 260.88H351.293L366.953 282.24L382.553 260.88H394.973L373.133 290.88L395.093 321H382.673L366.953 299.4L351.173 321H338.753ZM199.78 346H206.26V406H199.78L199.6 393.7C197.56 397.86 194.64 401.22 190.84 403.78C187.08 406.3 182.56 407.56 177.28 407.56C172.92 407.56 168.82 406.74 164.98 405.1C161.18 403.42 157.82 401.14 154.9 398.26C151.98 395.34 149.7 391.98 148.06 388.18C146.42 384.34 145.6 380.22 145.6 375.82C145.6 371.46 146.4 367.38 148 363.58C149.64 359.78 151.9 356.44 154.78 353.56C157.66 350.64 161 348.38 164.8 346.78C168.6 345.14 172.66 344.32 176.98 344.32C182.3 344.32 186.9 345.62 190.78 348.22C194.7 350.78 197.76 354.14 199.96 358.3L199.78 346ZM177.22 401.2C181.82 401.2 185.76 400.08 189.04 397.84C192.36 395.56 194.9 392.5 196.66 388.66C198.42 384.82 199.3 380.6 199.3 376C199.3 371.28 198.4 367.02 196.6 363.22C194.84 359.38 192.3 356.34 188.98 354.1C185.7 351.82 181.78 350.68 177.22 350.68C172.58 350.68 168.36 351.82 164.56 354.1C160.8 356.38 157.8 359.44 155.56 363.28C153.32 367.12 152.2 371.36 152.2 376C152.2 380.72 153.34 384.98 155.62 388.78C157.94 392.58 161 395.6 164.8 397.84C168.6 400.08 172.74 401.2 177.22 401.2ZM265.712 346H272.192V408.52C272.192 412.24 271.372 415.74 269.732 419.02C268.132 422.34 265.952 425.26 263.192 427.78C260.432 430.34 257.292 432.34 253.772 433.78C250.292 435.26 246.692 436 242.972 436C238.812 436 234.792 435.02 230.912 433.06C227.032 431.14 223.672 428.56 220.832 425.32C218.032 422.08 216.092 418.54 215.012 414.7L221.012 411.94C221.732 415.18 223.212 418.12 225.452 420.76C227.692 423.44 230.352 425.56 233.432 427.12C236.552 428.68 239.732 429.46 242.972 429.46C245.852 429.46 248.652 428.9 251.372 427.78C254.092 426.66 256.532 425.12 258.692 423.16C260.852 421.24 262.552 419.02 263.792 416.5C265.072 413.98 265.712 411.32 265.712 408.52V393.82C263.592 397.9 260.652 401.22 256.892 403.78C253.132 406.3 248.752 407.56 243.752 407.56C239.592 407.56 235.672 406.74 231.992 405.1C228.312 403.46 225.092 401.2 222.332 398.32C219.572 395.4 217.392 392.04 215.792 388.24C214.232 384.44 213.452 380.36 213.452 376C213.452 371.64 214.232 367.56 215.792 363.76C217.392 359.92 219.572 356.56 222.332 353.68C225.092 350.76 228.312 348.48 231.992 346.84C235.672 345.2 239.592 344.38 243.752 344.38C248.752 344.38 253.132 345.64 256.892 348.16C260.652 350.64 263.592 353.96 265.712 358.12V346ZM243.812 401.2C248.292 401.2 252.132 400.04 255.332 397.72C258.572 395.4 261.052 392.32 262.772 388.48C264.532 384.64 265.412 380.48 265.412 376C265.412 371.4 264.532 367.2 262.772 363.4C261.012 359.56 258.512 356.48 255.272 354.16C252.032 351.84 248.212 350.68 243.812 350.68C239.412 350.68 235.412 351.82 231.812 354.1C228.212 356.38 225.352 359.44 223.232 363.28C221.112 367.12 220.052 371.36 220.052 376C220.052 380.68 221.132 384.92 223.292 388.72C225.452 392.52 228.332 395.56 231.932 397.84C235.532 400.08 239.492 401.2 243.812 401.2ZM312.592 407.56C307.072 407.56 302.032 406.14 297.472 403.3C292.952 400.46 289.332 396.66 286.612 391.9C283.932 387.1 282.592 381.8 282.592 376C282.592 371.6 283.372 367.5 284.932 363.7C286.492 359.86 288.632 356.5 291.352 353.62C294.112 350.7 297.312 348.42 300.952 346.78C304.592 345.14 308.472 344.32 312.592 344.32C316.952 344.32 320.972 345.18 324.652 346.9C328.372 348.58 331.572 350.96 334.252 354.04C336.932 357.12 338.992 360.76 340.432 364.96C341.872 369.12 342.532 373.68 342.412 378.64H289.372C289.812 382.92 291.092 386.76 293.212 390.16C295.372 393.52 298.132 396.18 301.492 398.14C304.852 400.06 308.552 401.04 312.592 401.08C317.032 401.08 321.032 399.92 324.592 397.6C328.152 395.24 331.012 392.02 333.172 387.94L339.712 389.44C337.312 394.76 333.692 399.12 328.852 402.52C324.012 405.88 318.592 407.56 312.592 407.56ZM289.192 373.12H335.872C335.632 369 334.432 365.22 332.272 361.78C330.152 358.3 327.372 355.52 323.932 353.44C320.492 351.36 316.712 350.32 312.592 350.32C308.472 350.32 304.712 351.34 301.312 353.38C297.912 355.42 295.132 358.18 292.972 361.66C290.852 365.1 289.592 368.92 289.192 373.12ZM404.352 369.1V406H397.872V370.12C397.872 366.56 397.012 363.32 395.292 360.4C393.572 357.48 391.252 355.16 388.332 353.44C385.412 351.72 382.172 350.86 378.612 350.86C375.092 350.86 371.872 351.72 368.952 353.44C366.032 355.16 363.692 357.48 361.932 360.4C360.212 363.32 359.352 366.56 359.352 370.12V406H352.872V346H359.352V355.18C361.512 351.86 364.372 349.22 367.932 347.26C371.492 345.3 375.372 344.32 379.572 344.32C384.172 344.32 388.332 345.44 392.052 347.68C395.812 349.88 398.792 352.86 400.992 356.62C403.232 360.38 404.352 364.54 404.352 369.1ZM459.796 391.9L465.556 395.02C462.836 398.82 459.376 401.86 455.176 404.14C451.016 406.42 446.496 407.56 441.616 407.56C436.096 407.56 431.056 406.14 426.496 403.3C421.976 400.46 418.356 396.66 415.636 391.9C412.956 387.1 411.616 381.8 411.616 376C411.616 371.6 412.396 367.5 413.956 363.7C415.516 359.86 417.656 356.5 420.376 353.62C423.136 350.7 426.336 348.42 429.976 346.78C433.616 345.14 437.496 344.32 441.616 344.32C446.496 344.32 451.016 345.46 455.176 347.74C459.376 350.02 462.836 353.08 465.556 356.92L459.796 359.98C457.516 357.02 454.756 354.76 451.516 353.2C448.276 351.6 444.976 350.8 441.616 350.8C437.216 350.8 433.236 351.96 429.676 354.28C426.116 356.56 423.296 359.62 421.216 363.46C419.136 367.26 418.096 371.44 418.096 376C418.096 380.6 419.156 384.8 421.276 388.6C423.396 392.4 426.236 395.44 429.796 397.72C433.356 399.96 437.296 401.08 441.616 401.08C445.256 401.08 448.676 400.22 451.876 398.5C455.076 396.78 457.716 394.58 459.796 391.9ZM516.316 346H523.096L490.336 436H483.436L494.356 406L472.816 346H479.896L497.596 397.06L516.316 346Z" fill="#2339FF"/>
<path d="M411.79 243V244.68H407.13V257H405.45V244.68H400.8V243H411.79ZM412.79 257L415.5 243H416.79L420.57 252.94L424.34 243H425.63L428.35 257H426.64L424.67 246.84L421.12 256.24H420.01L416.46 246.84L414.5 257H412.79Z" fill="#2339FF"/>
</g>
<defs>
<clipPath id="clip0_67_6">
<rect width="386" height="200" fill="white" transform="translate(142 236)"/>
</clipPath>
</defs>
</svg>
